<?xml version="1.0" encoding="UTF-8"?>
<svg version="1.1" xmlns="http://www.w3.org/2000/svg" width="500" height="500">
<path d="M0 0 C165 0 330 0 500 0 C500 165 500 330 500 500 C335 500 170 500 0 500 C0 335 0 170 0 0 Z " fill="#FEFEFF" transform="translate(0,0)"/>
<path d="M0 0 C1.57168479 1.34349564 3.1345532 2.69738834 4.6875 4.0625 C5.43386719 4.66578125 6.18023437 5.2690625 6.94921875 5.890625 C25.23744622 21.08293962 36.23720174 44.86600976 38.40625 68.296875 C39.46405738 82.45974048 38.01887534 96.78209205 32.6875 110.0625 C32.33945312 110.99191406 31.99140625 111.92132813 31.6328125 112.87890625 C22.23851921 136.91724496 3.96697174 154.34305244 -19.14257812 165.12402344 C-39.3894037 173.88063882 -66.07771638 176.22012809 -87.10546875 168.8046875 C-99.71822241 163.79073603 -111.39938373 157.39908608 -121.3125 148.0625 C-122.18261719 147.25941406 -123.05273438 146.45632813 -123.94921875 145.62890625 C-141.42798402 128.8816887 -151.74258315 105.55342773 -152.55078125 81.375 C-153.00797347 55.64625374 -146.59903497 33.59811516 -129.3125 14.0625 C-128.47074219 13.10988281 -127.62898438 12.15726563 -126.76171875 11.17578125 C-116.02009242 -0.23421294 -102.79756173 -8.16491197 -88.3125 -13.9375 C-87.23742187 -14.37191406 -86.16234375 -14.80632812 -85.0546875 -15.25390625 C-57.84463156 -24.31340283 -22.36762089 -17.65864807 0 0 Z " fill="#FEFDFE" transform="translate(306.3125,129.9375)"/>
<path d="M0 0 C1.57168479 1.34349564 3.1345532 2.69738834 4.6875 4.0625 C5.43386719 4.66578125 6.18023437 5.2690625 6.94921875 5.890625 C25.23744622 21.08293962 36.23720174 44.86600976 38.40625 68.296875 C39.46405738 82.45974048 38.01887534 96.78209205 32.6875 110.0625 C32.33945312 110.99191406 31.99140625 111.92132813 31.6328125 112.87890625 C22.23851921 136.91724496 3.96697174 154.34305244 -19.14257812 165.12402344 C-39.3894037 173.88063882 -66.07771638 176.22012809 -87.10546875 168.8046875 C-99.71822241 163.79073603 -111.39938373 157.39908608 -121.3125 148.0625 C-122.18261719 147.25941406 -123.05273438 146.45632813 -123.94921875 145.62890625 C-141.42798402 128.8816887 -151.74258315 105.55342773 -152.55078125 81.375 C-153.00797347 55.64625374 -146.59903497 33.59811516 -129.3125 14.0625 C-128.47074219 13.10988281 -127.62898438 12.15726563 -126.76171875 11.17578125 C-116.02009242 -0.23421294 -102.79756173 -8.16491197 -88.3125 -13.9375 C-87.23742187 -14.37191406 -86.16234375 -14.80632812 -85.0546875 -15.25390625 C-57.84463156 -24.31340283 -22.36762089 -17.65864807 0 0 Z M-121.3125 14.0625 C-122.47072266 15.20138672 -122.47072266 15.20138672 -123.65234375 16.36328125 C-132.76297188 25.87882618 -138.97619411 37.67774758 -143.3125 50.0625 C-143.79203125 51.42761719 -143.79203125 51.42761719 -144.28125 52.8203125 C-150.82594901 75.54496183 -146.50449562 101.64612624 -135.3125 122.0625 C-124.12680154 140.87878815 -107.55272408 154.07938897 -87.3125 162.0625 C-85.66121094 162.71605469 -85.66121094 162.71605469 -83.9765625 163.3828125 C-66.2739877 169.1756459 -43.62149503 168.10373772 -26.3125 161.3125 C-25.63171387 161.04937012 -24.95092773 160.78624023 -24.24951172 160.51513672 C-3.0670849 152.12511676 15.2639426 136.02902876 24.578125 114.9765625 C26.07206052 111.38129102 27.41371285 107.74185138 28.6875 104.0625 C29.04585937 103.02738281 29.40421875 101.99226563 29.7734375 100.92578125 C36.26843258 80.58034794 33.27851943 56.06574099 23.72558594 37.15869141 C19.07389702 28.47857909 13.61642803 21.09148476 6.6875 14.0625 C5.77097656 13.03769531 5.77097656 13.03769531 4.8359375 11.9921875 C-7.48102348 -1.37302548 -24.86761447 -8.27460107 -42.3125 -11.9375 C-43.08207031 -12.12054688 -43.85164063 -12.30359375 -44.64453125 -12.4921875 C-73.13386866 -17.24736241 -101.20642435 -5.71233882 -121.3125 14.0625 Z " fill="#930BFF" transform="translate(306.3125,129.9375)"/>
<path d="M0 0 C1.06863281 0.01804688 2.13726562 0.03609375 3.23828125 0.0546875 C4.04652344 0.07789063 4.85476562 0.10109375 5.6875 0.125 C5.584375 1.341875 5.48125 2.55875 5.375 3.8125 C5.35543525 7.49067343 5.58833146 8.00234417 8.0625 11.0625 C10.48289281 13.10642313 10.48289281 13.10642313 12.6875 14.125 C13.36534992 16.45510909 14.03166793 18.78859824 14.6875 21.125 C16.46459032 23.30929262 16.46459032 23.30929262 18.74609375 23.390625 C19.92365234 23.38289063 19.92365234 23.38289063 21.125 23.375 C21.90746094 23.38015625 22.68992187 23.3853125 23.49609375 23.390625 C25.97794107 23.25676831 25.97794107 23.25676831 28.6875 21.125 C29.24664356 34.89649877 29.24664356 34.89649877 25.6875 41.125 C24.82125 42.671875 24.82125 42.671875 23.9375 44.25 C20.0512267 49.21579366 16.17739734 52.00971364 9.94921875 53.265625 C9.14830811 53.43094727 8.34739746 53.59626953 7.5222168 53.76660156 C6.91676025 53.88487305 6.31130371 54.00314453 5.6875 54.125 C5.54101266 58.43713657 5.45302876 62.74862443 5.375 67.0625 C5.33310547 68.27486328 5.29121094 69.48722656 5.24804688 70.73632812 C5.15267044 77.77510929 5.71756797 82.09186188 9.56323242 87.98217773 C11.60893118 91.88122182 11.21671389 95.88989682 11 100.1875 C10.97744141 101.05310547 10.95488281 101.91871094 10.93164062 102.81054688 C10.87347524 104.91613399 10.78382594 107.02081331 10.6875 109.125 C9.2025 109.62 9.2025 109.62 7.6875 110.125 C7.6875 103.855 7.6875 97.585 7.6875 91.125 C7.0275 91.125 6.3675 91.125 5.6875 91.125 C5.6875 97.065 5.6875 103.005 5.6875 109.125 C4.2025 109.62 4.2025 109.62 2.6875 110.125 C2.6875 103.855 2.6875 97.585 2.6875 91.125 C2.0275 91.125 1.3675 91.125 0.6875 91.125 C0.6875 97.065 0.6875 103.005 0.6875 109.125 C-0.7975 109.62 -0.7975 109.62 -2.3125 110.125 C-2.3125 103.855 -2.3125 97.585 -2.3125 91.125 C-2.9725 91.125 -3.6325 91.125 -4.3125 91.125 C-4.3125 97.065 -4.3125 103.005 -4.3125 109.125 C-5.3025 109.125 -6.2925 109.125 -7.3125 109.125 C-7.45990168 105.979675 -7.54725021 102.83525596 -7.625 99.6875 C-7.66689453 98.80900391 -7.70878906 97.93050781 -7.75195312 97.02539062 C-7.8425024 92.11761973 -7.50997631 88.97096969 -4.8125 84.8125 C-1.19273167 79.01637406 -1.76119727 73.20121586 -2 66.5625 C-2.03383789 64.76329102 -2.03383789 64.76329102 -2.06835938 62.92773438 C-2.12683691 59.99216197 -2.20874251 57.05926192 -2.3125 54.125 C-3.37339844 54.0115625 -4.43429688 53.898125 -5.52734375 53.78125 C-12.58523823 52.55759028 -17.59171296 48.61571191 -21.6875 42.8125 C-23.60440761 39.72674628 -24.72202597 36.94316387 -25.625 33.4375 C-27.05821859 28.74247357 -29.49499179 26.61379551 -33.65625 24.12109375 C-37.60553202 22.64011299 -41.15931133 23.06803409 -45.31640625 23.28515625 C-52.09424707 22.92284664 -57.40460531 18.38030308 -61.9375 13.625 C-63.87754219 11.14086666 -64.31730242 10.09725267 -64.875 6.875 C-64.3125 4.125 -64.3125 4.125 -63.3125 2.25 C-60.00539656 0.38975432 -56.93568772 0.4662386 -53.3125 1.125 C-47.93083142 3.18606456 -42.29025076 5.9132639 -38.3125 10.125 C-37.65252499 11.60994377 -37.03076723 13.11216855 -36.4375 14.625 C-34.45245179 19.60402587 -32.14133302 20.98917001 -27.3125 23.125 C-26.91160156 22.19558594 -26.51070312 21.26617187 -26.09765625 20.30859375 C-22.05742422 11.36840309 -18.02808318 5.41111459 -8.93359375 0.9609375 C-5.82952698 -0.02903313 -3.25104652 -0.07145157 0 0 Z " fill="#9105FE" transform="translate(248.3125,178.875)"/>
<path d="M0 0 C3.403125 -0.061875 6.80625 -0.12375 10.3125 -0.1875 C11.38153564 -0.21481201 12.45057129 -0.24212402 13.55200195 -0.27026367 C14.81983521 -0.28150269 14.81983521 -0.28150269 16.11328125 -0.29296875 C16.97735596 -0.3086792 17.84143066 -0.32438965 18.73168945 -0.34057617 C21 0 21 0 22.78588867 1.2956543 C24.7813983 4.09691163 24.30126512 6.68608372 24 10 C23.34 10.66 22.68 11.32 22 12 C22.495 12.53625 22.99 13.0725 23.5 13.625 C25.45562482 16.72140596 25.60024477 18.39853135 25 22 C22.8089474 24.52220547 21.06928946 25.85106244 17.71435547 26.31835938 C15.02494825 26.39375855 12.37668755 26.34806477 9.6875 26.25 C6.490625 26.1675 3.29375 26.085 0 26 C0 17.42 0 8.84 0 0 Z " fill="#9002FF" transform="translate(234,333)"/>
<path d="M0 0 C2.97 0 5.94 0 9 0 C9.06058594 1.35996094 9.12117187 2.71992188 9.18359375 4.12109375 C9.26798171 5.89324097 9.35263058 7.66537577 9.4375 9.4375 C9.47681641 10.33533203 9.51613281 11.23316406 9.55664062 12.15820312 C9.61948242 13.43920898 9.61948242 13.43920898 9.68359375 14.74609375 C9.72025146 15.53685303 9.75690918 16.3276123 9.79467773 17.14233398 C9.80563257 19.01401441 9.80563257 19.01401441 11 20 C13.5 20.16666667 13.5 20.16666667 16 20 C17.54950268 18.45049732 17.21655193 16.90009406 17.31640625 14.74609375 C17.35830078 13.89208984 17.40019531 13.03808594 17.44335938 12.15820312 C17.48267578 11.26037109 17.52199219 10.36253906 17.5625 9.4375 C17.60568359 8.53580078 17.64886719 7.63410156 17.69335938 6.70507812 C17.79977984 4.47024844 17.90042481 2.23514514 18 0 C20.97 0 23.94 0 27 0 C27.08115993 3.06303578 27.14057409 6.12390815 27.1875 9.1875 C27.21263672 10.05181641 27.23777344 10.91613281 27.26367188 11.80664062 C27.31952644 16.66598765 27.33297806 20.16092982 24 24 C19.42681129 27.51665101 15.49023062 27.5568065 9.890625 27.42578125 C5.49617105 26.77849006 3.87026576 25.33571427 1 22 C0.05862745 19.17588235 -0.11725382 17.47081968 -0.09765625 14.55078125 C-0.09443359 13.70322266 -0.09121094 12.85566406 -0.08789062 11.98242188 C-0.07951172 11.10134766 -0.07113281 10.22027344 -0.0625 9.3125 C-0.05798828 8.41982422 -0.05347656 7.52714844 -0.04882812 6.60742188 C-0.03705004 4.40491927 -0.01911481 2.20245115 0 0 Z " fill="#9611FF" transform="translate(144,332)"/>
<path d="M0 0 C3.5625 1.6875 3.5625 1.6875 6 4 C6.875 6.75 6.875 6.75 7 9 C0.9453125 9.1953125 0.9453125 9.1953125 -1 9 C-1.66 8.34 -2.32 7.68 -3 7 C-5.57061311 6.35232207 -5.57061311 6.35232207 -8 6 C-7.67 6.99 -7.34 7.98 -7 9 C-5.05649427 9.66010358 -5.05649427 9.66010358 -2.75 9.9375 C1.44397404 10.76693027 4.15814837 11.60811258 7 15 C7.54051695 18.78361865 7.54762568 21.0090583 5.6875 24.375 C1.78991476 28.12823023 -3.80210182 27.38552106 -8.87890625 27.3515625 C-11.89396624 27.01194373 -13.15043819 26.79299173 -15.3125 24.75 C-17 22 -17 22 -17 18 C-14.36 18 -11.72 18 -9 18 C-9 18.99 -9 19.98 -9 21 C-6.69 21 -4.38 21 -2 21 C-2 20.01 -2 19.02 -2 18 C-2.66386719 17.91363281 -3.32773437 17.82726562 -4.01171875 17.73828125 C-8.45258296 17.03163278 -11.42440734 16.41442672 -15.125 13.75 C-17 11 -17 11 -17.625 7.9375 C-17 5 -17 5 -14.625 2.6875 C-9.72977332 -0.45943144 -5.75902453 -0.63499198 0 0 Z " fill="#940CFF" transform="translate(350,332)"/>
<path d="M0 0 C7.59 0 15.18 0 23 0 C23 1.98 23 3.96 23 6 C18.38 6 13.76 6 9 6 C9 6.99 9 7.98 9 9 C12.96 9 16.92 9 21 9 C21 11.31 21 13.62 21 16 C16.71 16 12.42 16 8 16 C8 17.32 8 18.64 8 20 C12.95 20 17.9 20 23 20 C23 21.98 23 23.96 23 26 C15.41 26 7.82 26 0 26 C0 17.42 0 8.84 0 0 Z " fill="#9309FF" transform="translate(306,333)"/>
<path d="M0 0 C3.5625 1.6875 3.5625 1.6875 6 4 C6.875 6.75 6.875 6.75 7 9 C4.36 9 1.72 9 -1 9 C-1.33 8.34 -1.66 7.68 -2 7 C-3.65 7 -5.3 7 -7 7 C-7.33 7.66 -7.66 8.32 -8 9 C-7.00419922 9.14695312 -7.00419922 9.14695312 -5.98828125 9.296875 C3.80709534 10.9556541 3.80709534 10.9556541 7 15 C7.60918385 17.95633338 7.39272445 19.90729498 7 23 C5.18836733 25.67431489 4.12238923 25.95920359 1 27 C-1.14253254 27.14525644 -3.29024833 27.22075253 -5.4375 27.25 C-6.57058594 27.27578125 -7.70367187 27.3015625 -8.87109375 27.328125 C-12.28313665 26.97030777 -13.62911371 26.43878757 -16 24 C-16.75 20.8125 -16.75 20.8125 -17 18 C-14.36 18 -11.72 18 -9 18 C-8.67 18.66 -8.34 19.32 -8 20 C-5.67843403 20.40729228 -3.3431213 20.74438677 -1 21 C-3.99568972 17.44261845 -7.24314902 16.97818349 -11.625 15.94140625 C-14.51545604 14.79568272 -15.4884144 13.69111797 -17 11 C-17.0625 7.5 -17.0625 7.5 -16 4 C-11.35676454 -0.64323546 -6.22801437 -0.99930863 0 0 Z " fill="#930BFF" transform="translate(222,332)"/>
<path d="M0 0 C5.8541113 2.24200007 13.18941809 5.2771181 16.04296875 11.14453125 C16.71440474 12.73694075 17.3736137 14.33456992 18.01953125 15.9375 C19.20748984 18.43647265 20.56622355 19.69619119 23 21 C22.34 21 21.68 21 21 21 C21.495 22.485 21.495 22.485 22 24 C20.93845703 23.49726563 20.93845703 23.49726563 19.85546875 22.984375 C16.68829863 21.89254617 14.62916483 21.98431256 11.3125 22.25 C3.54324603 22.37423161 -1.2829415 19.3230503 -6.953125 14.25390625 C-9.66182627 11.41230141 -10.88373575 9.67174899 -11.5625 5.75 C-11 3 -11 3 -10 1.125 C-6.69289656 -0.73524568 -3.62318772 -0.6587614 0 0 Z " fill="#870AEA" transform="translate(195,180)"/>
<path d="M0 0 C4.32041139 2.71281646 4.32041139 2.71281646 5.6875 4.6875 C5.875 7.375 5.875 7.375 5.6875 9.6875 C3.0475 9.6875 0.4075 9.6875 -2.3125 9.6875 C-2.6425 8.6975 -2.9725 7.7075 -3.3125 6.6875 C-5.6225 6.3575 -7.9325 6.0275 -10.3125 5.6875 C-10.33936553 7.66659398 -10.35883375 9.64578971 -10.375 11.625 C-10.38660156 12.72714844 -10.39820313 13.82929688 -10.41015625 14.96484375 C-10.62512571 17.60197634 -10.62512571 17.60197634 -9.3125 18.6875 C-6.97952567 18.72842937 -4.64544775 18.72991723 -2.3125 18.6875 C-2.3125 17.3675 -2.3125 16.0475 -2.3125 14.6875 C0.3275 14.6875 2.9675 14.6875 5.6875 14.6875 C5.07726378 21.15600394 5.07726378 21.15600394 3.3125 23.5625 C-1.45200819 26.86100567 -7.79282439 26.22454952 -13.3125 25.6875 C-16.54677845 23.94098964 -17.7296505 22.6311611 -19.625 19.5625 C-20.78170552 14.72536784 -21.68456459 9.36056607 -19.33203125 4.77734375 C-14.09530529 -1.78064845 -7.67799444 -3.04222421 0 0 Z " fill="#930BFF" transform="translate(195.3125,333.3125)"/>
<path d="M0 0 C8.25 0 16.5 0 25 0 C25 1.98 25 3.96 25 6 C22.03 6 19.06 6 16 6 C16 12.6 16 19.2 16 26 C13.36 26 10.72 26 8 26 C8 19.4 8 12.8 8 6 C5.36 6 2.72 6 0 6 C0 4.02 0 2.04 0 0 Z " fill="#8F00FF" transform="translate(277,333)"/>
<path d="M0 0 C2.64 0 5.28 0 8 0 C8 8.58 8 17.16 8 26 C5.36 26 2.72 26 0 26 C0 17.42 0 8.84 0 0 Z " fill="#8F00FF" transform="translate(264,333)"/>
<path d="M0 0 C1.32 0.33 2.64 0.66 4 1 C5.25 3.5625 5.25 3.5625 6 6 C6.66 5.01 7.32 4.02 8 3 C8.66 2.01 9.32 1.02 10 0 C10.99 0 11.98 0 13 0 C13 3.96 13 7.92 13 12 C12.01 12 11.02 12 10 12 C9.67 11.34 9.34 10.68 9 10 C8.67 10.66 8.34 11.32 8 12 C7.01 12 6.02 12 5 12 C4.67 11.01 4.34 10.02 4 9 C3.67 9.99 3.34 10.98 3 12 C2.01 12 1.02 12 0 12 C0 8.04 0 4.08 0 0 Z " fill="#9816FF" transform="translate(186,372)"/>
<path d="M0 0 C0.99 0 1.98 0 3 0 C3 5.61 3 11.22 3 17 C6.3 17 9.6 17 13 17 C13 17.99 13 18.98 13 20 C8.71 20 4.42 20 0 20 C0 13.4 0 6.8 0 0 Z " fill="#F0DCFF" transform="translate(248,188)"/>
<path d="M0 0 C0.99 0 1.98 0 3 0 C3 2.97 3 5.94 3 9 C4.32 9 5.64 9 7 9 C7 6.03 7 3.06 7 0 C7.99 0 8.98 0 10 0 C10.08131463 1.43655854 10.13933559 2.8744483 10.1875 4.3125 C10.22230469 5.11300781 10.25710938 5.91351563 10.29296875 6.73828125 C10 9 10 9 8.6484375 10.7734375 C6.34292696 12.48891217 4.80243693 12.35928679 2 12 C0 10 0 10 -0.1953125 7.6171875 C-0.17210937 6.71226562 -0.14890625 5.80734375 -0.125 4.875 C-0.10695313 3.96492188 -0.08890625 3.05484375 -0.0703125 2.1171875 C-0.04710937 1.41851562 -0.02390625 0.71984375 0 0 Z " fill="#9E24FF" transform="translate(281,372)"/>
<path d="M0 0 C1.98 0 3.96 0 6 0 C8 2 8 2 8.125 4.625 C8.08375 5.40875 8.0425 6.1925 8 7 C6.35 7.33 4.7 7.66 3 8 C3 9.32 3 10.64 3 12 C2.01 12 1.02 12 0 12 C0 8.04 0 4.08 0 0 Z " fill="#B354FF" transform="translate(306,372)"/>
<path d="M0 0 C2.31 0 4.62 0 7 0 C7 0.99 7 1.98 7 3 C5.68 3 4.36 3 3 3 C3 3.66 3 4.32 3 5 C4.32 5 5.64 5 7 5 C7 5.66 7 6.32 7 7 C5.68 7 4.36 7 3 7 C3 7.99 3 8.98 3 10 C4.32 10 5.64 10 7 10 C7 10.66 7 11.32 7 12 C4.69 12 2.38 12 0 12 C0 8.04 0 4.08 0 0 Z " fill="#9D20FF" transform="translate(236,372)"/>
<path d="M0 0 C2.31 0 4.62 0 7 0 C7 0.99 7 1.98 7 3 C5.68 3 4.36 3 3 3 C3 3.66 3 4.32 3 5 C4.32 5 5.64 5 7 5 C7 5.66 7 6.32 7 7 C5.68 7 4.36 7 3 7 C3 7.99 3 8.98 3 10 C4.32 10 5.64 10 7 10 C7 10.66 7 11.32 7 12 C4.69 12 2.38 12 0 12 C0 8.04 0 4.08 0 0 Z " fill="#9D20FF" transform="translate(214,372)"/>
<path d="M0 0 C2.97 0 5.94 0 9 0 C9 0.99 9 1.98 9 3 C8.01 3 7.02 3 6 3 C6 5.97 6 8.94 6 12 C5.01 12 4.02 12 3 12 C3 9.03 3 6.06 3 3 C2.01 3 1.02 3 0 3 C0 2.01 0 1.02 0 0 Z " fill="#A636FF" transform="translate(258,372)"/>
<path d="M0 0 C2.31 0 4.62 0 7 0 C7.33 1.65 7.66 3.3 8 5 C5.36 5 2.72 5 0 5 C0 3.35 0 1.7 0 0 Z " fill="#F3E4FF" transform="translate(242,348)"/>
<path d="M0 0 C2.31 0 4.62 0 7 0 C7.5625 1.9375 7.5625 1.9375 8 4 C7 5 7 5 3.4375 5.0625 C2.303125 5.041875 1.16875 5.02125 0 5 C0 3.35 0 1.7 0 0 Z " fill="#EFDCFF" transform="translate(242,338)"/>
<path d="M0 0 C1.65 0 3.3 0 5 0 C3.515 2.475 3.515 2.475 2 5 C2.99 5.33 3.98 5.66 5 6 C4.34 6 3.68 6 3 6 C3 7.65 3 9.3 3 11 C2.01 11 1.02 11 0 11 C0 7.37 0 3.74 0 0 Z " fill="#950EFF" transform="translate(306,373)"/>
<path d="M0 0 C1.31571603 0.2547514 2.62760376 0.52934141 3.9375 0.8125 C4.66839844 0.96332031 5.39929688 1.11414063 6.15234375 1.26953125 C6.76207031 1.51058594 7.37179688 1.75164062 8 2 C8.33 2.99 8.66 3.98 9 5 C6.69 5 4.38 5 2 5 C1.34 3.35 0.68 1.7 0 0 Z " fill="#F4E5FF" transform="translate(212,348)"/>
<path d="M0 0 C2.31 0.33 4.62 0.66 7 1 C7 1.99 7 2.98 7 4 C4.69 4 2.38 4 0 4 C0 2.68 0 1.36 0 0 Z " fill="#F6EBFF" transform="translate(341,349)"/>
<path d="M0 0 C1.65 0 3.3 0 5 0 C5.66 1.32 6.32 2.64 7 4 C5.02 4 3.04 4 1 4 C0.67 2.68 0.34 1.36 0 0 Z " fill="#F4E6FF" transform="translate(342,338)"/>
<path d="M0 0 C1.65 0 3.3 0 5 0 C5.33 1.32 5.66 2.64 6 4 C3.69 3.67 1.38 3.34 -1 3 C-0.67 2.01 -0.34 1.02 0 0 Z " fill="#F4E7FF" transform="translate(215,338)"/>
</svg>
